<svg width="489" height="138" viewBox="0 0 489 138" fill="none" xmlns="http://www.w3.org/2000/svg">
<path d="M101.314 21.7627C101.314 24.1712 100.801 26.8616 99.7761 29.8338C98.8025 32.7548 97.4957 35.7783 95.8559 38.9042C94.2673 41.9789 92.3968 45.0793 90.2445 48.2053C88.1434 51.3312 85.9911 54.2778 83.7876 57.0451C85.12 58.3775 86.3242 59.6073 87.4004 60.7347C88.4765 61.8109 89.2452 62.5283 89.7064 62.8871C88.989 64.1169 87.9897 65.9361 86.7086 68.3447C85.4787 70.702 84.1463 73.3923 82.7114 76.4158C81.3278 79.4393 79.8929 82.6421 78.4068 86.0243C76.972 89.4065 75.6652 92.7375 74.4866 96.0172C73.3079 99.2456 72.3343 102.32 71.5656 105.241C70.8481 108.111 70.4894 110.52 70.4894 112.467C70.4894 115.029 70.8225 117.412 71.4887 119.616C72.2061 121.819 73.231 123.741 74.5634 125.381C75.947 127.072 77.6381 128.455 79.6367 129.532C81.6865 130.659 84.0438 131.376 86.7086 131.684L82.942 136.68C82.3271 136.68 81.3791 136.527 80.0979 136.219C78.8168 135.963 77.3819 135.476 75.7933 134.759C74.2047 134.092 72.5392 133.17 70.7969 131.991C69.0545 130.813 67.4147 129.301 65.8773 127.456C64.34 125.663 62.982 123.485 61.8033 120.922C60.6247 118.411 59.8048 115.439 59.3436 112.006C56.8838 114.568 54.219 117.105 51.3493 119.616C48.5308 122.127 45.6098 124.381 42.5863 126.38C39.5628 128.379 36.4881 129.993 33.3622 131.223C30.2874 132.453 27.2896 133.068 24.3686 133.068C22.6775 133.068 20.9352 132.606 19.1416 131.684C17.3992 130.762 15.6569 129.532 13.9145 127.994C12.2234 126.508 10.5836 124.766 8.99499 122.767C7.45763 120.769 6.07401 118.719 4.84412 116.618C3.66547 114.466 2.69181 112.339 1.92313 110.238C1.10321 108.137 0.616375 106.189 0.462639 104.396C0.462639 103.73 0.488262 102.935 0.539507 102.013C0.539507 101.039 0.56513 100.04 0.616375 99.015C0.667621 97.9901 0.744489 96.9908 0.846979 96.0172C0.898225 95.0435 0.975093 94.1723 1.07758 93.4037C1.84626 88.8428 3.07615 84.0258 4.76725 78.9525C6.45835 73.8792 8.50816 68.729 10.9167 63.502C13.3765 58.275 16.1437 53.0736 19.2184 47.8978C22.2932 42.722 25.6241 37.7768 29.2113 33.0623C32.7985 28.3477 36.5906 23.9918 40.5878 19.9947C44.5849 15.9463 48.6845 12.4616 52.8866 9.54063C57.14 6.5684 61.4446 4.23674 65.8005 2.54564C70.2076 0.854546 74.589 0.00899752 78.9449 0.00899752C80.431 0.00899752 82.0196 0.393338 83.7107 1.16202C85.4018 1.9307 87.0673 2.92998 88.7071 4.15987C90.3982 5.38976 91.9868 6.79901 93.473 8.38761C95.0103 9.92497 96.3427 11.5136 97.4701 13.1534C98.6487 14.742 99.5712 16.305 100.237 17.8424C100.955 19.3285 101.314 20.6353 101.314 21.7627ZM21.217 119.693C22.1907 119.693 23.5999 119.129 25.4448 118.001C27.3408 116.874 29.5188 115.26 31.9785 113.159C34.4896 111.058 37.2056 108.47 40.1265 105.395C43.0475 102.32 45.9941 98.8613 48.9664 95.0179C51.9386 91.1232 54.8596 86.8699 57.7293 82.2578C60.6503 77.5945 63.3663 72.6237 65.8773 67.3454L56.8069 58.275C57.6781 57.3526 59.0361 56.1227 60.8809 54.5853C62.7257 53.0479 64.7756 51.2287 67.0304 49.1277C69.2852 47.0266 71.5912 44.6949 73.9485 42.1327C76.357 39.5192 78.5349 36.7263 80.4823 33.7541C82.4808 30.7306 84.1207 27.579 85.4018 24.2993C86.683 20.9683 87.3235 17.5093 87.3235 13.9221C87.3235 11.9235 86.9136 10.4118 86.0936 9.3869C85.3249 8.31075 84.6331 7.77267 84.0182 7.77267C80.9947 7.77267 77.6894 8.87444 74.1022 11.078C70.5663 13.2303 66.9279 16.1769 63.187 19.9178C59.446 23.6075 55.6795 27.9377 51.8874 32.9085C48.1464 37.8793 44.5336 43.1832 41.049 48.8202C37.6155 54.4572 34.3871 60.2479 31.3636 66.1924C28.3914 72.1368 25.8035 77.9532 23.5999 83.6414C21.3964 89.3297 19.654 94.736 18.3729 99.8606C17.0918 104.985 16.4512 109.495 16.4512 113.389C16.4512 117.591 18.0398 119.693 21.217 119.693ZM130.216 111.621C129.806 111.621 129.422 111.621 129.063 111.621C128.755 111.621 128.422 111.57 128.064 111.468C126.372 113.261 124.553 114.952 122.606 116.541C120.71 118.078 118.788 119.411 116.841 120.538C114.894 121.717 112.972 122.614 111.076 123.228C109.231 123.895 107.463 124.228 105.772 124.228C104.183 124.228 102.518 123.664 100.775 122.537C99.0843 121.409 97.5213 120.077 96.0865 118.54C94.6516 116.951 93.473 115.337 92.5505 113.697C91.6281 112.057 91.1669 110.75 91.1669 109.777C91.1669 107.368 91.4488 104.14 92.0125 100.091C92.5762 95.9916 93.5754 91.3538 95.0103 86.1781C96.4452 80.951 98.3925 75.314 100.852 69.2671C103.363 63.2201 106.541 57.0451 110.384 50.7419C115.457 42.4402 120.326 35.6758 124.989 30.4487C129.703 25.2217 133.982 21.1221 137.826 18.1499C141.72 15.1264 145.128 12.9997 148.049 11.7698C150.97 10.4887 153.199 9.66875 154.737 9.31003C155.864 9.31003 157.094 9.6175 158.426 10.2324C159.81 10.7961 161.117 11.5904 162.347 12.6154C163.628 13.589 164.781 14.7164 165.806 15.9975C166.831 17.2274 167.548 18.5086 167.958 19.841C167.343 23.4281 166.139 27.0665 164.345 30.7562C162.603 34.3946 160.425 38.0843 157.812 41.8252C155.249 45.5149 152.303 49.2558 148.972 53.0479C145.641 56.8401 142.054 60.6579 138.21 64.5013C134.367 68.2934 130.344 72.0856 126.142 75.8777C121.991 79.6699 117.763 83.4621 113.459 87.2542C112.69 89.8165 111.998 92.2763 111.383 94.6335C110.768 96.9908 110.23 99.1688 109.769 101.167C109.359 103.166 109.026 104.934 108.77 106.471C108.565 107.957 108.462 109.162 108.462 110.084C108.462 111.519 108.565 112.493 108.77 113.005C108.975 113.466 109.41 113.697 110.076 113.697C110.743 113.697 111.511 113.441 112.382 112.928C113.305 112.364 114.253 111.621 115.227 110.699C116.2 109.777 117.2 108.726 118.224 107.547C119.249 106.317 120.223 105.036 121.145 103.704C121.094 103.345 121.069 103.012 121.069 102.705C121.069 102.397 121.069 102.115 121.069 101.859C121.069 99.9118 121.376 97.9901 121.991 96.094C122.606 94.198 123.4 92.4044 124.374 90.7133C125.348 89.0222 126.424 87.4336 127.602 85.9475C128.832 84.4613 130.062 83.129 131.292 81.9503C131.907 82.4115 132.522 83.0265 133.137 83.7952C133.803 84.5638 134.444 85.4606 135.059 86.4855C135.725 87.4592 136.34 88.4841 136.903 89.5603C137.518 90.6364 138.108 91.7126 138.671 92.7887C138.415 94.736 137.8 96.7602 136.827 98.8613C135.904 100.962 134.7 103.063 133.214 105.164H133.521C135.264 105.164 136.929 105.036 138.518 104.78C140.106 104.473 141.644 103.986 143.13 103.32C144.667 102.602 146.179 101.68 147.665 100.552C149.151 99.3737 150.663 97.9389 152.2 96.2478C152.713 96.709 153.328 97.3496 154.045 98.1695C154.762 98.9382 155.377 99.6043 155.89 100.168C153.737 102.423 151.611 104.293 149.51 105.779C147.409 107.214 145.308 108.367 143.207 109.238C141.106 110.11 138.979 110.725 136.827 111.083C134.725 111.442 132.522 111.621 130.216 111.621ZM126.065 55.1234C124.733 57.5832 123.426 60.2735 122.145 63.1945C120.864 66.1155 119.634 69.1902 118.455 72.4187C124.041 66.9867 129.242 61.6315 134.059 56.3533C138.876 51.0238 143.027 46.053 146.512 41.4409C149.997 36.8288 152.738 32.6779 154.737 28.9882C156.735 25.2473 157.735 22.1982 157.735 19.841C157.735 19.1235 157.478 18.7648 156.966 18.7648C156.197 18.7648 154.891 19.3285 153.046 20.4559C151.201 21.532 148.92 23.4537 146.204 26.221C143.54 28.937 140.491 32.6523 137.057 37.3669C133.675 42.0302 130.011 47.949 126.065 55.1234ZM160.502 112.159C160.502 113.697 161.066 114.466 162.193 114.466C163.372 114.466 164.935 113.543 166.882 111.698C168.829 109.802 170.853 107.419 172.955 104.55C172.852 103.986 172.775 103.499 172.724 103.089C172.724 102.628 172.724 102.218 172.724 101.859C172.724 100.834 172.826 99.63 173.031 98.2463C173.288 96.8115 173.877 95.1972 174.799 93.4037C175.414 92.02 176.157 90.662 177.029 89.3297C177.746 88.151 178.617 86.8955 179.642 85.5631C180.667 84.1795 181.794 82.8984 183.024 81.7197L183.485 81.2585C183.998 81.8735 184.664 82.719 185.484 83.7952C186.355 84.8201 187.201 85.8962 188.021 87.0236C188.892 88.0998 189.635 89.099 190.25 90.0215C190.916 90.9439 191.326 91.5844 191.48 91.9432C191.48 94.1467 191.07 96.3503 190.25 98.5538C189.481 100.757 188.431 102.935 187.098 105.088C190.173 104.883 193.017 104.114 195.631 102.782C198.295 101.398 201.063 99.1688 203.932 96.094C204.394 96.5552 204.983 97.1958 205.7 98.0157C206.469 98.7844 207.084 99.4506 207.545 100.014C205.393 102.269 203.266 104.14 201.165 105.626C199.115 107.112 197.04 108.29 194.939 109.162C192.889 110.033 190.788 110.673 188.636 111.083C186.483 111.442 184.28 111.621 182.025 111.621C180.283 113.466 178.412 115.157 176.414 116.695C174.415 118.232 172.365 119.564 170.264 120.692C168.214 121.819 166.165 122.69 164.115 123.305C162.065 123.92 160.118 124.228 158.273 124.228C156.735 124.228 155.147 123.767 153.507 122.844C151.867 121.922 150.381 120.794 149.049 119.462C147.716 118.078 146.614 116.618 145.743 115.08C144.872 113.543 144.436 112.185 144.436 111.006C144.436 107.112 144.975 103.243 146.051 99.3994C147.076 95.556 148.715 91.9688 150.97 88.6378C153.174 85.2556 155.992 82.2834 159.426 79.7211C162.91 77.1589 167.036 75.2116 171.801 73.8792C171.955 73.7767 172.211 73.6998 172.57 73.6486C172.98 73.5973 173.313 73.5717 173.569 73.5717C174.287 73.5717 175.03 73.8536 175.799 74.4173C176.619 74.9297 177.362 75.519 178.028 76.1852C178.745 76.8514 179.335 77.5176 179.796 78.1838C180.257 78.7987 180.488 79.2087 180.488 79.4137C180.385 79.6699 180.001 80.003 179.335 80.413C178.668 80.7717 177.772 81.4122 176.644 82.3347C175.517 83.2571 174.184 84.5895 172.647 86.3318C171.11 88.0229 169.419 90.2777 167.574 93.0962C164.807 97.2471 162.936 101.014 161.962 104.396C160.989 107.727 160.502 110.315 160.502 112.159ZM242.981 113.236C242.981 113.543 243.135 113.697 243.442 113.697C244.006 113.697 244.852 113.364 245.979 112.698C247.158 112.031 248.49 111.186 249.976 110.161C251.462 109.136 253.025 107.983 254.665 106.702C256.305 105.421 257.868 104.191 259.354 103.012C260.84 101.782 262.173 100.655 263.351 99.63C264.581 98.6051 265.504 97.8364 266.119 97.3239C266.58 97.7851 267.118 98.3745 267.733 99.0919C268.399 99.8093 269.014 100.476 269.578 101.09C268.45 102.218 267.015 103.576 265.273 105.164C263.582 106.753 261.711 108.419 259.662 110.161C257.663 111.852 255.562 113.543 253.358 115.234C251.206 116.874 249.105 118.36 247.055 119.693C245.005 120.974 243.084 122.024 241.29 122.844C239.497 123.664 238.01 124.074 236.832 124.074C235.961 124.074 234.987 123.792 233.911 123.228C232.835 122.716 231.81 122.024 230.836 121.153C229.914 120.333 229.119 119.411 228.453 118.386C227.838 117.361 227.531 116.387 227.531 115.465C227.531 114.645 227.838 113.082 228.453 110.776C229.068 108.47 229.811 105.779 230.682 102.705C228.376 105.831 226.122 108.598 223.918 111.006C221.714 113.364 219.69 115.388 217.845 117.079C216.001 118.77 214.386 120.128 213.003 121.153C211.619 122.229 210.594 122.998 209.928 123.459C209.518 123.715 209.031 123.895 208.468 123.997C207.904 124.151 207.391 124.228 206.93 124.228C205.957 124.228 204.88 123.92 203.702 123.305C202.523 122.742 201.447 122.024 200.473 121.153C199.448 120.282 198.603 119.308 197.937 118.232C197.219 117.156 196.86 116.131 196.86 115.157C196.86 114.03 197.245 112.159 198.013 109.546C198.731 106.932 199.73 103.806 201.011 100.168C202.241 96.5296 203.702 92.4556 205.393 87.946C207.084 83.4364 208.903 78.6962 210.85 73.7254C210.953 73.4692 211.03 73.3667 211.081 73.418C211.184 73.418 211.337 73.418 211.542 73.418C212.516 73.5717 213.848 73.9817 215.539 74.6479C217.23 75.2628 218.87 75.9546 220.459 76.7233C222.099 77.492 223.508 78.235 224.687 78.9525C225.865 79.6187 226.455 80.0799 226.455 80.3361C226.301 80.6948 225.891 81.5404 225.225 82.8727C224.61 84.2051 223.867 85.8193 222.996 87.7154C222.176 89.5603 221.279 91.5844 220.305 93.788C219.383 95.9403 218.512 98.0157 217.692 100.014C216.923 102.013 216.282 103.832 215.77 105.472C215.258 107.061 215.001 108.239 215.001 109.008C215.001 109.213 215.104 109.315 215.309 109.315C215.719 109.315 216.616 108.777 217.999 107.701C219.383 106.574 221.074 104.831 223.072 102.474C225.122 100.117 227.428 97.0933 229.991 93.4037C232.553 89.6627 235.218 85.1788 237.985 79.9518L240.137 73.8792C240.291 73.4692 240.624 73.2642 241.136 73.2642C241.495 73.2642 242.264 73.623 243.442 74.3404C244.672 75.0066 245.954 75.8009 247.286 76.7233C248.67 77.5945 249.899 78.4913 250.976 79.4137C252.052 80.2848 252.641 80.8998 252.744 81.2585C252.744 81.4122 252.718 81.6941 252.667 82.1041C252.615 82.4628 252.539 82.7702 252.436 83.0265C251.924 84.4101 251.334 86.05 250.668 87.946C250.002 89.7909 249.31 91.7382 248.593 93.788C247.926 95.7866 247.26 97.8108 246.594 99.8606C245.928 101.91 245.313 103.832 244.749 105.626C244.237 107.368 243.801 108.931 243.442 110.315C243.135 111.647 242.981 112.621 242.981 113.236ZM273.575 124.228C272.704 124.228 271.551 123.818 270.116 122.998C268.732 122.229 267.374 121.256 266.042 120.077C264.709 118.949 263.556 117.771 262.583 116.541C261.609 115.311 261.122 114.261 261.122 113.389C261.122 111.852 261.558 109.418 262.429 106.087C263.249 102.756 264.351 98.9638 265.734 94.7104C267.118 90.4058 268.681 85.8193 270.423 80.951C272.217 76.0827 274.01 71.3169 275.804 66.6536H264.966H264.889C264.837 66.6536 264.812 66.6023 264.812 66.4998C264.812 66.1924 264.94 65.7568 265.196 65.1931C265.401 64.5781 265.683 63.9632 266.042 63.3483C266.349 62.6821 266.733 62.0927 267.195 61.5803C267.605 61.0166 268.015 60.6579 268.425 60.5041L278.417 60.0429C279.852 56.5582 281.21 53.3554 282.491 50.4344C283.824 47.4622 285.002 44.9256 286.027 42.8245C286.284 42.2608 286.54 41.6715 286.796 41.0565C287.104 40.3903 287.513 39.7498 288.026 39.1348C288.59 38.4686 289.307 37.8024 290.178 37.1363C291.101 36.4188 292.331 35.7014 293.868 34.984C294.995 34.4203 296.353 33.8053 297.942 33.1391C299.582 32.4729 301.17 31.858 302.708 31.2943C304.296 30.7306 305.731 30.2694 307.012 29.9107C308.293 29.5007 309.216 29.2957 309.78 29.2957C310.292 29.2957 310.548 29.3982 310.548 29.6032V29.7569C310.548 29.8082 310.497 29.9363 310.395 30.1413C310.087 30.6537 309.523 31.7811 308.703 33.5235C307.884 35.2146 306.859 37.3669 305.629 39.9804C304.45 42.5426 303.118 45.4893 301.632 48.8202C300.197 52.0999 298.711 55.5846 297.173 59.2743L315.622 58.5824C316.134 58.5824 316.288 58.8899 316.083 59.5049C315.878 60.1198 315.493 60.8372 314.93 61.6572C314.366 62.4771 313.7 63.3226 312.931 64.1938C312.214 65.065 311.599 65.7312 311.086 66.1924C310.984 66.2949 310.779 66.3974 310.471 66.4998C310.164 66.6023 309.78 66.6536 309.318 66.6536H294.099C292.254 71.1119 290.486 75.6215 288.795 80.1824C287.104 84.7432 285.592 89.0734 284.259 93.1731C282.927 97.2727 281.851 101.039 281.031 104.473C280.262 107.906 279.878 110.725 279.878 112.928C279.878 113.236 280.032 113.389 280.339 113.389C280.903 113.389 281.748 113.082 282.876 112.467C284.003 111.801 285.259 110.955 286.642 109.93C288.077 108.905 289.589 107.778 291.178 106.548C292.766 105.318 294.278 104.114 295.713 102.935C297.148 101.705 298.429 100.604 299.556 99.63C300.735 98.6051 301.632 97.8364 302.247 97.3239C302.708 97.7851 303.246 98.3745 303.861 99.0919C304.527 99.8093 305.142 100.476 305.706 101.09C304.578 102.218 303.169 103.601 301.478 105.241C299.787 106.83 297.942 108.47 295.943 110.161C293.996 111.852 291.946 113.543 289.794 115.234C287.693 116.925 285.617 118.437 283.568 119.769C281.569 121.102 279.699 122.178 277.956 122.998C276.214 123.818 274.753 124.228 273.575 124.228ZM393.412 125.688C396.077 118.001 398.69 111.211 401.253 105.318C403.815 99.3737 406.198 93.9417 408.401 89.0222C405.89 92.8143 403.533 96.1453 401.329 99.015C399.177 101.885 397.281 104.293 395.641 106.241C393.694 108.547 391.9 110.52 390.26 112.159C386.366 115.9 382.881 119.129 379.806 121.845C376.783 124.561 374.067 126.79 371.658 128.532C369.301 130.326 367.226 131.658 365.432 132.529C363.638 133.401 362.05 133.836 360.666 133.836C359.59 133.836 358.437 133.452 357.207 132.683C356.029 131.966 354.85 131.043 353.671 129.916C352.544 128.84 351.468 127.687 350.443 126.457C349.418 125.227 348.521 124.125 347.752 123.152C346.471 121.512 345.754 119.385 345.6 116.772C345.446 114.158 345.37 110.93 345.37 107.086C345.37 101.193 345.856 95.0179 346.83 88.561C347.855 82.1041 349.29 75.6215 351.135 69.1134C352.979 62.554 355.209 56.0458 357.822 49.5889C360.436 43.0807 363.357 36.8544 366.585 30.9099C369.814 24.9142 373.298 19.3029 377.039 14.0758C380.78 8.84882 384.7 4.15987 388.8 0.00899752C389.876 1.1364 391.106 2.44315 392.49 3.92927C393.873 5.36414 395.257 6.85025 396.64 8.38761C398.075 9.92497 399.433 11.4623 400.714 12.9997C402.047 14.4858 403.174 15.7926 404.097 16.92C399.741 20.8659 395.641 25.3242 391.798 30.295C388.006 35.2146 384.521 40.4928 381.344 46.1298C378.167 51.7156 375.322 57.5575 372.811 63.6557C370.3 69.7027 368.174 75.8521 366.431 82.1041C364.74 88.3047 363.408 94.5054 362.434 100.706C361.512 106.907 361.025 112.903 360.974 118.693C366.662 115.824 371.889 112.339 376.655 108.239C381.421 104.14 385.776 99.6812 389.722 94.8642C393.72 89.9958 397.332 84.8969 400.561 79.5674C403.84 74.2379 406.787 68.8571 409.401 63.4251C412.065 57.9931 414.423 52.638 416.472 47.3597C418.573 42.0814 420.47 37.1106 422.161 32.4473C423.852 27.784 425.338 23.5306 426.619 19.6872C427.951 15.8438 429.156 12.641 430.232 10.0787C430.744 10.8474 431.436 11.7954 432.307 12.9228C433.178 14.0502 434.101 15.2801 435.075 16.6125C436.099 17.8936 437.124 19.2004 438.149 20.5328C439.225 21.8651 440.199 23.1207 441.07 24.2993C441.993 25.4267 442.787 26.426 443.453 27.2971C444.119 28.1171 444.555 28.6808 444.76 28.9882C441.993 36.1114 439.507 42.8245 437.304 49.1277C435.1 55.3796 433.05 61.4009 431.154 67.1917C429.258 72.9311 427.465 78.5681 425.773 84.1026C424.134 89.5859 422.468 95.1716 420.777 100.86C419.086 106.497 417.292 112.313 415.396 118.309C413.551 124.253 411.527 130.582 409.324 137.295L393.412 125.688ZM433.383 98.7844C434.562 97.657 435.92 96.3759 437.457 94.941C438.944 93.5062 440.43 91.9432 441.916 90.2521C443.453 88.561 444.862 86.7418 446.143 84.7944C447.476 82.8471 448.526 80.7461 449.295 78.4913C449.5 77.3126 449.808 76.0827 450.218 74.8016C450.679 73.4692 451.166 72.265 451.678 71.1888C452.242 70.1126 452.78 69.2159 453.292 68.4984C453.805 67.781 454.266 67.4223 454.676 67.4223C455.291 67.781 456.213 68.4728 457.443 69.4977C458.673 70.4714 459.903 71.5219 461.133 72.6493C462.363 73.7767 463.439 74.8272 464.361 75.8009C465.335 76.7233 465.822 77.287 465.822 77.492C465.207 79.8493 464.899 81.9759 464.899 83.872C464.951 85.7681 465.104 87.6386 465.361 89.4834C465.668 91.3282 465.975 93.3012 466.283 95.4022C466.642 97.452 466.821 99.835 466.821 102.551C466.821 104.191 466.539 106.087 465.975 108.239C465.463 110.34 464.541 112.236 463.208 113.927C465.822 112.39 468.41 110.673 470.972 108.777C473.534 106.83 475.815 105.011 477.813 103.32C480.17 101.321 482.425 99.3225 484.578 97.3239L488.037 101.09C486.345 102.679 484.501 104.37 482.502 106.164C480.555 107.957 478.505 109.725 476.353 111.468C474.252 113.21 472.099 114.875 469.896 116.464C467.692 118.053 465.514 119.462 463.362 120.692C461.21 121.922 459.134 122.895 457.136 123.613C455.137 124.33 453.267 124.689 451.524 124.689C450.038 124.689 448.398 124.33 446.605 123.613C444.811 122.895 443.12 122.024 441.531 120.999C439.943 119.974 438.559 118.898 437.381 117.771C436.202 116.643 435.51 115.695 435.305 114.927C435.305 114.824 435.408 114.619 435.613 114.312C435.818 113.953 436.074 113.594 436.381 113.236C436.637 112.877 436.919 112.569 437.227 112.313C437.483 112.006 437.688 111.852 437.842 111.852C438.149 111.852 438.764 112.083 439.687 112.544C440.609 113.005 442.146 113.236 444.299 113.236C445.477 113.236 446.477 112.928 447.297 112.313C448.168 111.698 448.885 110.878 449.449 109.853C450.013 108.829 450.422 107.65 450.679 106.317C450.935 104.985 451.063 103.576 451.063 102.09C451.063 99.9374 450.961 97.862 450.756 95.8634C450.551 93.8136 450.32 91.8407 450.064 89.9446C449.193 90.9695 448.193 92.0457 447.066 93.1731C445.939 94.3005 444.785 95.4279 443.607 96.5552C442.479 97.6314 441.326 98.7076 440.148 99.7837C439.02 100.809 437.995 101.731 437.073 102.551L433.383 98.7844Z" fill="white"/>
</svg>
