<svg width="82" height="82" viewBox="0 0 82 82" fill="none" xmlns="http://www.w3.org/2000/svg">
<path d="M15.6586 59.1801C12.1394 55.4423 10.25 51.2501 10.25 44.4543C10.25 32.496 18.6447 21.7779 30.8525 16.4786L33.9036 21.1868C22.509 27.3505 20.2813 35.3489 19.393 40.3919C21.2278 39.4421 23.6297 39.1106 25.9838 39.3293C32.1474 39.8999 37.0059 44.96 37.0059 51.2501C37.0059 54.4216 35.746 57.4633 33.5034 59.7059C31.2608 61.9485 28.2191 63.2084 25.0476 63.2084C23.2937 63.1931 21.5603 62.829 19.9484 62.1375C18.3365 61.4459 16.8783 60.4406 15.6586 59.1801ZM49.8253 59.1801C46.3061 55.4423 44.4167 51.2501 44.4167 44.4543C44.4167 32.496 52.8114 21.7779 65.0192 16.4786L68.0703 21.1868C56.6757 27.3505 54.448 35.3489 53.5597 40.3919C55.3944 39.4421 57.7963 39.1106 60.1504 39.3293C66.3141 39.8999 71.1726 44.96 71.1726 51.2501C71.1726 54.4216 69.9127 57.4633 67.6701 59.7059C65.4274 61.9485 62.3858 63.2084 59.2142 63.2084C57.4603 63.1931 55.727 62.829 54.1151 62.1375C52.5032 61.4459 51.045 60.4406 49.8253 59.1801Z" fill="black" fill-opacity="0.19"/>
</svg>
