<svg width="10" height="8" viewBox="0 0 10 8" fill="none" xmlns="http://www.w3.org/2000/svg">
<path d="M8.7085 1.33889C9.2235 1.88589 9.5 2.49939 9.5 3.49389C9.5 5.24389 8.2715 6.81239 6.485 7.58789L6.0385 6.89889C7.706 5.99689 8.032 4.82639 8.162 4.08839C7.8935 4.22739 7.542 4.27589 7.1975 4.24389C6.2955 4.16039 5.5845 3.41989 5.5845 2.49939C5.5845 2.03526 5.76887 1.59014 6.09706 1.26195C6.42525 0.933764 6.87037 0.74939 7.3345 0.74939C7.59117 0.751633 7.84483 0.804907 8.08072 0.906112C8.31661 1.00732 8.53001 1.15443 8.7085 1.33889ZM3.7085 1.33889C4.2235 1.88589 4.5 2.49939 4.5 3.49389C4.5 5.24389 3.2715 6.81239 1.485 7.58789L1.0385 6.89889C2.706 5.99689 3.032 4.82639 3.162 4.08839C2.8935 4.22739 2.542 4.27589 2.1975 4.24389C1.2955 4.16039 0.5845 3.41989 0.5845 2.49939C0.5845 2.03526 0.768874 1.59014 1.09706 1.26195C1.42525 0.933765 1.87037 0.74939 2.3345 0.74939C2.59117 0.751634 2.84483 0.804908 3.08072 0.906112C3.31661 1.00732 3.53001 1.15443 3.7085 1.33889Z" fill="black"/>
</svg>
