<svg width="128" height="20" viewBox="0 0 128 20" fill="none" xmlns="http://www.w3.org/2000/svg">
<g clip-path="url(#clip0_0_1735)">
<path d="M35.9869 9.25917C35.9869 12.1725 37.4403 14.7717 39.7128 16.4692V20L43.1178 18.1317C44.0261 18.3825 44.9886 18.5192 45.9861 18.5192C51.5086 18.5192 55.9861 14.3742 55.9861 9.26C55.9869 4.14583 51.5094 0 45.9869 0C40.4644 0 35.9869 4.145 35.9869 9.25917V9.25917ZM44.9319 6.66583L47.5403 9.38167L52.4461 6.66583L46.9794 12.4675L44.4336 9.7525L39.4644 12.4683L44.9319 6.66583Z" fill="#DF6951"/>
</g>
<g clip-path="url(#clip1_0_1735)">
<path d="M19.9951 20.0008V20H20.0001V12.665C20.0001 9.07667 19.2276 6.3125 15.0326 6.3125C13.0159 6.3125 11.6626 7.41917 11.1101 8.46833H11.0517V6.6475H7.07422V20H11.2159V13.3883C11.2159 11.6475 11.5459 9.96417 13.7017 9.96417C15.8259 9.96417 15.8576 11.9508 15.8576 13.5V20.0008H19.9951Z" fill="#DF6951"/>
<path d="M0.3302 6.64844H4.47687V20.0009H0.3302V6.64844Z" fill="#DF6951"/>
<path d="M2.40167 0C1.07583 0 0 1.07583 0 2.40167C0 3.7275 1.07583 4.82583 2.40167 4.82583C3.7275 4.82583 4.80333 3.7275 4.80333 2.40167C4.8025 1.07583 3.72667 0 2.40167 0V0Z" fill="#DF6951"/>
</g>
<g clip-path="url(#clip2_0_1735)">
<path d="M89.9189 5.9275C90.7322 5.35 91.4164 4.62917 91.9739 3.79917V3.79833C91.2297 4.12417 90.438 4.34083 89.6114 4.44583C90.4614 3.93833 91.1105 3.14083 91.4155 2.18C90.623 2.6525 89.748 2.98583 88.8155 3.1725C88.063 2.37083 86.9905 1.875 85.8205 1.875C83.5505 1.875 81.723 3.7175 81.723 5.97583C81.723 6.30083 81.7505 6.61333 81.818 6.91083C78.4097 6.74417 75.393 5.11083 73.3664 2.62167C73.013 3.23583 72.8047 3.93833 72.8047 4.69417C72.8047 6.11417 73.5355 7.3725 74.6264 8.10167C73.9672 8.08917 73.3214 7.8975 72.7739 7.59667V7.64167C72.7739 9.63417 74.1947 11.2892 76.0589 11.6708C75.7247 11.7625 75.3614 11.8058 74.9839 11.8058C74.7214 11.8058 74.4564 11.7908 74.208 11.7358C74.7389 13.3592 76.2472 14.5533 78.0389 14.5925C76.6439 15.6833 74.8722 16.3408 72.9547 16.3408C72.6189 16.3408 72.2964 16.3258 71.9739 16.285C73.7905 17.4558 75.9422 18.125 78.2639 18.125C85.4997 18.125 90.2155 12.0883 89.9189 5.9275Z" fill="#DF6951"/>
</g>
<g clip-path="url(#clip3_0_1735)">
<path d="M116.392 14.0984C116.445 14.0534 116.499 14.0067 116.549 13.9576C113.765 16.6892 109.225 15.4142 108.161 11.5617V11.5559C106.733 6.31422 112.752 2.33256 116.547 5.99922C116.627 6.08339 121.869 11.6742 121.536 11.3184H121.551C122.333 12.1251 123.465 12.0367 124.138 11.3317C124.862 10.5751 124.888 9.34006 124.177 8.57089C123.055 7.27839 120.851 8.24422 121.062 10.1601L119.8 8.87506L118.337 7.47589C118.638 6.87672 119.034 6.35256 119.53 5.89922C119.477 5.94506 119.422 5.99256 119.372 6.04006C122.167 3.29839 126.704 4.60339 127.761 8.43922V8.44422C129.192 13.6851 123.166 17.6667 119.374 14.0001C119.297 13.9167 114.057 8.29089 114.389 8.64756L114.386 8.63506C114.372 8.63506 114.372 8.62256 114.372 8.62256C113.551 7.77506 112.437 7.90256 111.785 8.59672C111.06 9.35339 111.035 10.5884 111.747 11.3459C112.821 12.6084 115.072 11.6726 114.861 9.71839C114.942 9.80256 117.768 12.7034 117.588 12.5192C117.131 13.4317 116.619 13.8509 116.392 14.0984Z" fill="#DF6951"/>
</g>
<defs>
<clipPath id="clip0_0_1735">
<rect width="20" height="20" fill="white" transform="translate(35.9869)"/>
</clipPath>
<clipPath id="clip1_0_1735">
<rect width="20" height="20" fill="white"/>
</clipPath>
<clipPath id="clip2_0_1735">
<rect width="20" height="20" fill="white" transform="translate(71.9739)"/>
</clipPath>
<clipPath id="clip3_0_1735">
<rect width="20" height="20" fill="white" transform="translate(107.961)"/>
</clipPath>
</defs>
</svg>
