<svg width="629" height="133" viewBox="0 0 629 133" fill="none" xmlns="http://www.w3.org/2000/svg">
<path d="M65.4118 114.619C65.4118 115.643 65.4118 116.566 65.4118 117.386C65.4118 118.154 65.4375 118.821 65.4887 119.384C70.357 115.951 75.046 111.749 79.5556 106.778C84.1164 101.756 88.3698 96.2727 92.3156 90.3282C96.2615 84.3325 99.8743 77.9781 103.154 71.265C106.434 64.5518 109.227 57.7618 111.533 50.8949C113.89 43.9768 115.709 37.1612 116.99 30.448C118.271 23.6836 118.912 17.2523 118.912 11.1541C118.912 9.4118 118.861 7.92569 118.758 6.6958C118.656 5.41467 118.528 4.33851 118.374 3.46734C118.22 2.59617 118.066 1.92998 117.913 1.46877C117.81 0.956321 117.733 0.571981 117.682 0.315754L140.512 22.8381C138.923 31.8573 136.464 40.6202 133.133 49.127C129.802 57.5824 125.933 65.6023 121.526 73.1867C117.118 80.7197 112.353 87.7403 107.228 94.2485C102.155 100.757 97.0302 106.573 91.8544 111.698C86.7299 116.771 81.7335 121.075 76.8652 124.611C72.0481 128.147 67.7179 130.735 63.8745 132.375C63.362 132.631 62.9008 132.785 62.4909 132.836C62.0809 132.939 61.799 132.99 61.6453 132.99C60.6204 132.99 59.5699 132.631 58.4937 131.914C57.4688 131.248 56.4951 130.428 55.5727 129.454C54.7016 128.532 53.9073 127.584 53.1898 126.61C52.5236 125.688 52.0368 124.944 51.7293 124.381C51.6268 124.176 51.4731 123.843 51.2681 123.381C51.1144 122.92 50.9606 122.382 50.8069 121.767C50.6532 121.204 50.4994 120.614 50.3457 119.999C50.2432 119.436 50.192 118.898 50.192 118.385C50.192 116.95 50.2176 115.157 50.2688 113.004C50.3713 110.801 50.4738 108.367 50.5763 105.702C37.6112 118.974 25.7223 127.865 14.9095 132.375C14.3458 132.631 13.8334 132.785 13.3722 132.836C12.9622 132.939 12.6804 132.99 12.5266 132.99C11.5017 132.99 10.4256 132.58 9.29817 131.76C8.22202 130.94 7.17149 129.992 6.14658 128.916C5.17292 127.84 4.30175 126.764 3.53307 125.688C2.81563 124.611 2.30318 123.791 1.99571 123.228C1.73948 122.818 1.48325 122.203 1.22703 121.383C0.9708 120.614 0.842686 119.717 0.842686 118.693C0.842686 116.028 1.12454 112.441 1.68823 107.931C2.25193 103.37 3.07186 98.1688 4.14801 92.3268C5.22416 86.4848 6.47968 80.1304 7.91455 73.2635C9.40066 66.3966 11.0661 59.2992 12.911 51.9711C14.7558 44.643 16.7287 37.2124 18.8298 29.6793C20.9309 22.095 23.1344 14.7157 25.4405 7.54135C26.2091 8.36128 27.1572 9.43743 28.2846 10.7698C29.412 12.1022 30.5906 13.5371 31.8205 15.0744C33.0504 16.5605 34.2547 18.0723 35.4333 19.6096C36.6632 21.147 37.7393 22.5306 38.6618 23.7605C39.6354 24.9904 40.4041 26.0153 40.9678 26.8352C41.5315 27.6039 41.8133 27.9882 41.8133 27.9882C39.0461 36.085 36.4326 44.3099 33.9728 52.6629C31.5643 61.0159 29.2839 69.2151 27.1316 77.2607C25.0305 85.3062 23.0575 93.0698 21.2127 100.552C19.3679 108.033 17.6768 114.952 16.1394 121.306C22.8526 117.206 29.2582 112.338 35.3564 106.701C41.4546 101.013 46.9635 94.7609 51.8831 87.9453C52.3443 83.1795 52.908 78.4905 53.5742 73.8785C54.2916 69.2151 55.1115 65.0386 56.0339 61.349C56.9564 57.6593 58.0069 54.6871 59.1855 52.4323C60.3642 50.1262 61.6965 48.9732 63.1827 48.9732C63.8489 48.9732 64.7969 49.4088 66.0268 50.28C67.3079 51.1511 68.589 52.2017 69.8702 53.4316C71.2026 54.6102 72.4324 55.8145 73.5598 57.0444C74.7385 58.223 75.584 59.1454 76.0965 59.8116C76.3527 60.1191 76.6089 60.5803 76.8652 61.1952C77.1214 61.7589 77.2495 62.5532 77.2495 63.5781C77.2495 66.0379 77.0189 68.2927 76.5577 70.3425C76.0965 72.3923 75.4303 74.3653 74.5591 76.2614C73.688 78.1062 72.6374 79.951 71.4075 81.7959C70.2289 83.6407 68.9221 85.588 67.4873 87.6378C67.0773 90.4563 66.7186 93.3773 66.4111 96.4008C66.1549 99.0143 65.9243 101.91 65.7193 105.087C65.5143 108.264 65.4118 111.441 65.4118 114.619ZM170.183 112.236C170.183 112.543 170.337 112.697 170.644 112.697C171.105 112.697 171.874 112.364 172.95 111.698C174.026 111.031 175.256 110.186 176.64 109.161C178.024 108.136 179.484 106.983 181.021 105.702C182.61 104.421 184.122 103.165 185.557 101.935C186.991 100.705 188.273 99.578 189.4 98.5531C190.579 97.5282 191.475 96.7339 192.09 96.1702C192.552 96.6314 193.115 97.2463 193.781 98.015C194.499 98.7837 195.139 99.4755 195.703 100.09C194.473 101.218 192.987 102.601 191.245 104.241C189.554 105.83 187.709 107.495 185.71 109.238C183.763 110.98 181.739 112.722 179.638 114.465C177.537 116.156 175.487 117.668 173.488 119C171.49 120.332 169.594 121.409 167.8 122.228C166.006 123.1 164.443 123.535 163.111 123.535C162.189 123.535 161.164 123.356 160.036 122.997C158.96 122.638 157.961 122.126 157.039 121.46C156.116 120.845 155.347 120.102 154.732 119.231C154.118 118.359 153.81 117.386 153.81 116.31C153.81 115.9 153.784 115.413 153.733 114.849C153.733 114.234 153.784 113.466 153.887 112.543C153.989 111.569 154.194 110.416 154.502 109.084C154.809 107.7 155.271 106.009 155.886 104.011C154.194 105.804 152.196 107.675 149.89 109.622C147.635 111.569 145.252 113.414 142.741 115.157C140.23 116.899 137.693 118.462 135.131 119.846C132.62 121.28 130.288 122.357 128.136 123.074C127.88 123.176 127.675 123.228 127.521 123.228C127.367 123.228 127.214 123.228 127.06 123.228C126.548 123.228 125.881 122.972 125.061 122.459C124.19 121.947 123.345 121.255 122.525 120.384C121.705 119.564 121.013 118.616 120.449 117.54C119.834 116.463 119.527 115.387 119.527 114.311C119.527 114.004 119.681 112.979 119.988 111.236C120.296 109.494 121.039 107.29 122.217 104.626C123.345 101.91 125.036 98.8862 127.291 95.5552C129.545 92.1731 132.62 88.714 136.515 85.1781C138.513 83.3845 140.666 81.6934 142.972 80.1048C144.919 78.7724 147.148 77.4144 149.659 76.0308C152.17 74.6471 154.809 73.5454 157.577 72.7254C157.679 72.7254 157.756 72.6998 157.807 72.6486C157.91 72.5973 158.038 72.623 158.192 72.7254C158.806 72.9304 159.524 73.2635 160.344 73.7247C161.215 74.1347 162.061 74.5959 162.881 75.1084C163.752 75.5696 164.495 76.0564 165.11 76.5688C165.776 77.0301 166.211 77.4144 166.416 77.7219C166.468 77.8244 166.468 77.9012 166.416 77.9525L166.263 78.1062C163.957 79.3361 161.779 80.7197 159.729 82.2571C157.679 83.7432 155.86 85.1524 154.271 86.4848C152.426 88.0734 150.71 89.6364 149.121 91.1738C145.38 94.8634 142.792 98.0663 141.357 100.782C139.923 103.447 139.205 105.369 139.205 106.547C139.205 107.419 139.564 107.854 140.281 107.854C140.999 107.854 141.896 107.572 142.972 107.009C144.099 106.394 145.355 105.599 146.738 104.626C148.122 103.601 149.634 102.422 151.273 101.09C152.965 99.7061 154.707 98.2713 156.5 96.7851C158.089 95.504 159.626 94.1204 161.113 92.6343C162.394 91.4044 163.726 89.9951 165.11 88.4065C166.493 86.8179 167.672 85.2037 168.646 83.5638C168.646 83.5126 168.671 83.4613 168.722 83.4101C168.774 83.3589 168.851 83.3589 168.953 83.4101C169.517 83.8201 170.157 84.5119 170.875 85.4855C171.592 86.408 172.258 87.4329 172.873 88.5603C173.488 89.6877 174.001 90.7894 174.411 91.8656C174.872 92.8905 175.103 93.6848 175.103 94.2485C173.924 96.657 173.001 98.8606 172.335 100.859C171.72 102.806 171.233 104.523 170.875 106.009C170.567 107.495 170.362 108.777 170.26 109.853C170.209 110.878 170.183 111.672 170.183 112.236ZM213.69 81.8727C213.075 83.5126 212.46 85.1781 211.845 86.8692C211.23 88.5603 210.616 90.3026 210.001 92.0962C213.229 88.4065 215.996 85.4087 218.302 83.1026C220.66 80.7453 222.633 78.9005 224.221 77.5681C225.861 76.2357 227.168 75.339 228.141 74.8777C229.166 74.3653 229.961 74.1091 230.524 74.1091C231.191 74.1091 232.19 74.4422 233.522 75.1084C234.855 75.7745 236.187 76.5945 237.519 77.5681C238.903 78.5418 240.082 79.5411 241.055 80.566C242.08 81.5909 242.593 82.4877 242.593 83.2564C242.593 83.4101 242.567 83.6151 242.516 83.8713C242.465 84.0763 242.388 84.3581 242.285 84.7169C241.875 85.998 241.337 87.5097 240.671 89.2521C240.056 90.9944 239.39 92.8136 238.672 94.7097C237.955 96.5545 237.238 98.425 236.52 100.321C235.803 102.166 235.162 103.908 234.598 105.548C234.035 107.188 233.573 108.623 233.215 109.853C232.856 111.083 232.677 111.979 232.677 112.543C232.677 112.851 232.83 113.004 233.138 113.004C233.702 113.004 234.547 112.671 235.675 112.005C236.802 111.339 238.083 110.468 239.518 109.391C241.004 108.315 242.541 107.137 244.13 105.856C245.719 104.574 247.23 103.319 248.665 102.089C250.151 100.808 251.484 99.6549 252.662 98.63C253.841 97.6051 254.738 96.8364 255.353 96.3239C255.865 96.7851 256.429 97.3745 257.044 98.0919C257.659 98.8093 258.248 99.4755 258.812 100.09C257.684 101.218 256.275 102.601 254.584 104.241C252.893 105.83 251.048 107.47 249.05 109.161C247.102 110.852 245.052 112.543 242.9 114.234C240.799 115.925 238.749 117.437 236.751 118.769C234.752 120.102 232.882 121.178 231.139 121.998C229.397 122.818 227.936 123.228 226.758 123.228C225.989 123.228 225.015 122.946 223.837 122.382C222.658 121.87 221.505 121.204 220.378 120.384C219.302 119.615 218.379 118.744 217.611 117.77C216.842 116.796 216.458 115.848 216.458 114.926C216.919 112.825 217.534 110.442 218.302 107.777C219.122 105.113 219.993 102.397 220.916 99.6293C221.838 96.8108 222.786 94.0435 223.76 91.3275C224.785 88.5603 225.759 86.0236 226.681 83.7176L226.527 83.8713C225.554 85.05 224.144 86.6129 222.299 88.5603C220.506 90.4563 218.456 92.9161 216.15 95.9396C213.844 98.9118 211.41 102.525 208.848 106.778C206.285 110.98 203.774 115.977 201.315 121.767C201.007 122.485 200.725 123.048 200.469 123.458C200.213 123.868 199.726 124.073 199.008 124.073C198.137 124.073 197.138 123.817 196.011 123.305C194.934 122.843 193.833 122.203 192.705 121.383C191.527 120.614 190.374 119.743 189.246 118.769C188.068 117.796 187.017 116.822 186.095 115.848C186.095 115.541 186.248 114.67 186.556 113.235C186.812 111.8 187.196 110.006 187.709 107.854C188.221 105.651 188.862 103.165 189.631 100.398C190.399 97.5794 191.27 94.6328 192.244 91.5581C193.218 88.4834 194.294 85.3574 195.473 82.1802C196.6 78.9518 197.83 75.8514 199.162 72.8792C201.315 73.9041 203.697 75.1596 206.311 76.6457C208.976 78.1318 211.435 79.8742 213.69 81.8727ZM301.243 110.468C301.243 111.749 301.653 112.389 302.473 112.389C303.447 112.389 304.6 112.082 305.932 111.467C307.316 110.852 308.75 110.058 310.237 109.084C311.723 108.059 313.234 106.932 314.772 105.702C316.309 104.472 317.744 103.268 319.076 102.089C320.46 100.91 321.69 99.8086 322.766 98.7837C323.842 97.7588 324.688 96.9389 325.303 96.3239C325.815 96.7851 326.43 97.3745 327.147 98.0919C327.865 98.8093 328.505 99.4755 329.069 100.09C327.737 101.423 326.225 102.909 324.534 104.549C322.843 106.189 321.024 107.88 319.076 109.622C317.18 111.313 315.182 112.979 313.081 114.619C311.031 116.207 308.981 117.642 306.931 118.923C304.881 120.153 302.883 121.152 300.935 121.921C298.988 122.69 297.143 123.074 295.401 123.074C294.479 123.074 293.351 122.638 292.019 121.767C290.686 120.947 289.405 119.922 288.175 118.693C286.946 117.463 285.895 116.182 285.024 114.849C284.204 113.466 283.794 112.236 283.794 111.159C283.794 108.802 283.948 106.342 284.255 103.78C281.949 105.83 279.72 107.777 277.568 109.622C275.415 111.467 273.237 113.209 271.034 114.849C268.882 116.438 266.652 117.898 264.346 119.231C262.092 120.614 259.683 121.793 257.121 122.767C256.352 123.074 255.686 123.228 255.122 123.228C254.61 123.228 253.943 122.972 253.124 122.459C252.304 121.947 251.509 121.28 250.741 120.46C249.972 119.692 249.306 118.821 248.742 117.847C248.178 116.822 247.897 115.848 247.897 114.926C247.897 112.825 248.307 110.493 249.126 107.931C249.895 105.317 251.048 102.653 252.585 99.9367C254.072 97.1695 255.916 94.4279 258.12 91.7118C260.272 88.9446 262.732 86.3567 265.499 83.9482C268.267 81.4884 271.316 79.2848 274.647 77.3375C277.978 75.339 281.539 73.7504 285.331 72.5717C286.049 72.6742 286.971 73.0073 288.099 73.571C289.226 74.0834 290.276 74.6215 291.25 75.1852C293.095 69.9069 295.196 64.6287 297.553 59.3504C299.962 54.0209 302.498 48.922 305.163 44.0537C307.879 39.1341 310.698 34.5477 313.619 30.2943C316.54 25.9897 319.461 22.1975 322.382 18.9178C325.303 15.5869 328.172 12.8965 330.991 10.8467C333.861 8.79686 336.577 7.54135 339.139 7.08014C340.266 7.08014 341.445 7.46448 342.675 8.23316C343.956 8.9506 345.16 9.84739 346.288 10.9235C347.415 11.9485 348.363 13.0246 349.132 14.152C349.952 15.2794 350.464 16.2274 350.669 16.9961C350.669 19.3534 350.08 22.095 348.901 25.221C347.722 28.347 346.083 31.7292 343.982 35.3676C341.932 38.9548 339.472 42.7213 336.602 46.6672C333.784 50.6131 330.735 54.6358 327.455 58.7355C324.175 62.7838 320.716 66.8322 317.078 70.8806C313.491 74.929 309.878 78.8493 306.239 82.6414C304.702 87.8684 303.472 92.8649 302.55 97.6307C301.679 102.345 301.243 106.624 301.243 110.468ZM339.831 16.3812C338.96 16.3812 337.883 17.0217 336.602 18.3029C335.372 19.584 333.963 21.3776 332.375 23.6836C330.837 25.9384 329.197 28.6288 327.455 31.7548C325.713 34.8807 323.945 38.2886 322.151 41.9782C320.357 45.6679 318.564 49.5882 316.77 53.739C314.977 57.8899 313.286 62.092 311.697 66.3454C315.54 61.6308 319.179 56.9163 322.612 52.2017C326.097 47.4359 329.146 42.9263 331.76 38.6729C334.373 34.4195 336.449 30.5249 337.986 26.989C339.523 23.453 340.292 20.532 340.292 18.226C340.292 17.9185 340.266 17.5342 340.215 17.073C340.215 16.6118 340.087 16.3812 339.831 16.3812ZM266.883 107.854C268.574 107.854 271.085 106.675 274.416 104.318C277.747 101.91 281.513 98.7068 285.716 94.7097C286.177 92.3524 286.741 89.9695 287.407 87.561C288.073 85.1012 288.816 82.6158 289.636 80.1048C286.664 82.1033 283.743 84.3838 280.873 86.946C278.054 89.5083 275.543 92.0449 273.34 94.556C271.136 97.067 269.343 99.4243 267.959 101.628C266.627 103.78 265.961 105.42 265.961 106.547C265.961 107.419 266.268 107.854 266.883 107.854ZM378.726 100.09C374.011 104.703 369.553 108.572 365.351 111.698C361.2 114.824 357.229 117.335 353.436 119.231C349.644 121.127 346.006 122.485 342.521 123.305C339.088 124.125 335.731 124.534 332.451 124.534C331.068 124.534 329.53 124.022 327.839 122.997C326.148 121.972 324.585 120.717 323.15 119.231C321.664 117.796 320.434 116.284 319.461 114.695C318.487 113.107 318 111.749 318 110.621C318 106.419 318.59 102.576 319.768 99.0912C320.896 95.5552 322.407 92.378 324.303 89.5595C326.199 86.741 328.352 84.2556 330.76 82.1033C333.22 79.951 335.757 78.1575 338.37 76.7226C341.035 75.2877 343.674 74.2116 346.288 73.4941C348.901 72.7767 351.31 72.418 353.513 72.418C355.102 72.418 356.665 72.8792 358.202 73.8016C359.791 74.724 361.226 75.8514 362.507 77.1838C363.788 78.5162 364.813 79.9254 365.581 81.4115C366.401 82.8464 366.811 84.1019 366.811 85.1781C366.811 86.9204 366.068 88.714 364.582 90.5588C363.147 92.3524 361.098 94.1972 358.433 96.0933C355.768 97.9894 352.565 99.9367 348.824 101.935C345.083 103.883 340.958 105.856 336.449 107.854C336.295 109.084 336.218 110.288 336.218 111.467C336.218 113.056 336.551 114.132 337.217 114.695C337.935 115.259 339.241 115.541 341.137 115.541C344.52 115.541 347.697 114.977 350.669 113.85C353.693 112.722 356.588 111.262 359.355 109.468C362.122 107.675 364.787 105.625 367.349 103.319C369.912 101.013 372.448 98.6812 374.959 96.3239L378.726 100.09ZM351.668 80.8735C350.643 80.8735 349.516 81.4372 348.286 82.5646C347.056 83.6407 345.826 85.0756 344.597 86.8692C343.367 88.6627 342.188 90.7382 341.061 93.0955C339.933 95.4015 338.96 97.81 338.14 100.321C340.036 99.0912 341.881 97.7844 343.674 96.4008C345.519 95.0172 347.159 93.5823 348.594 92.0962C350.029 90.5588 351.182 88.9958 352.053 87.4072C352.924 85.8186 353.359 84.23 353.359 82.6414C353.359 82.1802 353.206 81.7702 352.898 81.4115C352.642 81.0528 352.232 80.8735 351.668 80.8735ZM409.858 87.1766C409.191 89.1752 408.346 91.4556 407.321 94.0179C406.347 96.5802 405.399 99.0912 404.477 101.551C403.554 104.011 402.76 106.24 402.094 108.238C401.479 110.237 401.171 111.672 401.171 112.543C401.171 112.851 401.325 113.004 401.633 113.004C402.196 113.004 403.042 112.671 404.169 112.005C405.297 111.339 406.578 110.468 408.013 109.391C409.499 108.315 411.036 107.137 412.625 105.856C414.213 104.574 415.725 103.319 417.16 102.089C418.646 100.808 419.978 99.6549 421.157 98.63C422.336 97.6051 423.233 96.8364 423.847 96.3239C424.309 96.7851 424.847 97.3745 425.462 98.0919C426.128 98.8093 426.743 99.4755 427.307 100.09C426.179 101.218 424.77 102.601 423.079 104.241C421.388 105.83 419.543 107.47 417.544 109.161C415.597 110.852 413.547 112.543 411.395 114.234C409.294 115.925 407.218 117.437 405.169 118.769C403.17 120.102 401.3 121.178 399.557 121.998C397.815 122.818 396.354 123.228 395.176 123.228C394.407 123.228 393.433 122.946 392.255 122.382C391.076 121.87 389.949 121.204 388.873 120.384C387.796 119.615 386.874 118.744 386.105 117.77C385.337 116.796 384.952 115.848 384.952 114.926C385.721 111.493 386.49 108.495 387.258 105.932C388.027 103.37 388.744 101.192 389.411 99.3987C390.077 97.5538 390.666 96.0677 391.179 94.9403C391.691 93.8129 392.075 92.9674 392.332 92.4037C391.717 92.1474 391.127 91.8656 390.564 91.5581C390 91.2506 389.436 90.9432 388.873 90.6357C388.053 91.5069 387.13 92.4293 386.105 93.4029C385.132 94.3766 384.132 95.3503 383.107 96.3239C382.083 97.2976 381.058 98.2456 380.033 99.168C379.008 100.09 378.085 100.936 377.265 101.705L373.576 97.9382C374.908 96.657 376.522 95.1197 378.418 93.3261C380.263 91.4812 382.083 89.6364 383.876 87.7916C382.595 87.0229 381.442 86.3055 380.417 85.6393C379.392 84.9218 378.521 84.2813 377.804 83.7176C376.932 83.1026 376.164 82.5389 375.497 82.0265C375.19 81.8727 375.036 81.5396 375.036 81.0272C375.036 80.4635 375.267 79.6692 375.728 78.6443C376.138 77.5681 376.676 76.4407 377.342 75.2621C378.009 74.0322 378.726 72.8023 379.495 71.5724C380.263 70.2913 381.006 69.1383 381.724 68.1134C382.441 67.0885 383.056 66.2685 383.569 65.6536C384.132 64.9874 384.491 64.6543 384.645 64.6543C384.747 64.6543 385.08 64.7824 385.644 65.0386C386.259 65.2949 386.9 65.6023 387.566 65.9611C388.232 66.2685 388.847 66.6272 389.411 67.0372C389.974 67.4472 390.333 67.8059 390.487 68.1134C390.538 68.3696 390.589 68.9077 390.64 69.7276C390.692 70.5475 390.743 71.5468 390.794 72.7254C392.793 73.7504 394.843 74.929 396.944 76.2614C399.045 77.5425 400.966 78.7724 402.709 79.951C404.759 81.2834 406.706 82.6414 408.551 84.025C409.217 84.435 409.627 84.9475 409.781 85.5624C409.986 86.1773 410.011 86.7154 409.858 87.1766ZM439.99 113.619C440.81 113.619 441.911 113.261 443.295 112.543C444.73 111.826 446.293 110.929 447.984 109.853C449.675 108.725 451.443 107.495 453.288 106.163C455.133 104.831 456.849 103.524 458.438 102.243C460.078 100.962 461.538 99.783 462.82 98.7068C464.101 97.6307 465.049 96.8364 465.664 96.3239C466.125 96.7851 466.663 97.3745 467.278 98.0919C467.944 98.8093 468.559 99.4755 469.123 100.09C467.995 101.218 466.586 102.601 464.895 104.241C463.204 105.83 461.359 107.47 459.36 109.161C457.413 110.852 455.363 112.543 453.211 114.234C451.11 115.925 449.035 117.437 446.985 118.769C444.986 120.102 443.116 121.178 441.373 121.998C439.631 122.818 438.171 123.228 436.992 123.228C435.403 123.228 433.712 122.664 431.919 121.537C430.176 120.409 428.536 119.102 426.999 117.616C425.462 116.079 424.155 114.542 423.079 113.004C422.003 111.467 421.388 110.314 421.234 109.545C421.131 109.238 421.08 108.879 421.08 108.469C421.08 108.008 421.08 107.521 421.08 107.009C421.08 104.446 421.413 101.218 422.079 97.3232C422.694 93.3773 423.54 89.2264 424.616 84.8706C425.692 80.4635 426.922 76.1076 428.306 71.803C429.741 67.4472 431.227 63.6038 432.764 60.2728C435.89 53.4572 439.093 47.4102 442.373 42.132C445.704 36.8537 448.958 32.2672 452.135 28.3726C455.312 24.4267 458.361 21.1214 461.282 18.4566C464.203 15.7919 466.817 13.6395 469.123 11.9997C471.48 10.3598 473.453 9.1812 475.042 8.46377C476.681 7.74633 477.809 7.38761 478.424 7.38761C479.397 7.74633 480.371 8.28441 481.345 9.00184C482.37 9.66803 483.318 10.3855 484.189 11.1541C485.06 11.9228 485.829 12.6915 486.495 13.4602C487.161 14.1776 487.648 14.7157 487.955 15.0744C488.365 15.4844 488.622 15.8943 488.724 16.3043C488.878 16.663 488.955 17.1499 488.955 17.7648C488.955 18.9947 488.647 20.6858 488.032 22.8381C487.417 24.9904 486.264 27.732 484.573 31.063C482.882 34.3427 480.525 38.2886 477.501 42.9006C474.529 47.5127 470.634 52.8935 465.817 59.0429C463.563 61.9127 461.18 64.8337 458.669 67.8059C456.516 70.3682 454.031 73.161 451.212 76.1845C448.394 79.208 445.499 82.1033 442.526 84.8706C441.04 90.5076 439.99 95.4784 439.375 99.783C438.811 104.088 438.529 107.444 438.529 109.853C438.529 111.441 438.657 112.466 438.914 112.927C439.17 113.389 439.529 113.619 439.99 113.619ZM452.289 57.275C451.417 59.2223 450.598 61.1184 449.829 62.9632C449.111 64.808 448.42 66.6272 447.753 68.4208C449.342 66.6272 450.777 64.9105 452.058 63.2707C453.39 61.6308 454.518 60.2216 455.44 59.0429C456.516 57.6593 457.49 56.3526 458.361 55.1227C461.948 50.1006 465.049 45.4885 467.662 41.2864C470.276 37.0843 472.428 33.3946 474.119 30.2174C475.81 26.989 477.04 24.3242 477.809 22.2231C478.629 20.0708 479.039 18.5335 479.039 17.6111C479.039 17.3548 479.013 17.1755 478.962 17.073C478.962 16.9192 478.834 16.8424 478.578 16.8424C478.116 16.8424 477.066 17.6111 475.426 19.1484C473.786 20.6345 471.762 23.0174 469.353 26.2971C466.996 29.5769 464.331 33.779 461.359 38.9035C458.438 43.9768 455.415 50.1006 452.289 57.275ZM505.712 112.236C505.712 112.543 505.866 112.697 506.173 112.697C506.737 112.697 507.582 112.364 508.71 111.698C509.888 111.031 511.221 110.186 512.707 109.161C514.193 108.136 515.756 106.983 517.396 105.702C519.036 104.421 520.599 103.191 522.085 102.012C523.571 100.782 524.903 99.6549 526.082 98.63C527.312 97.6051 528.234 96.8364 528.849 96.3239C529.31 96.7851 529.848 97.3745 530.463 98.0919C531.13 98.8093 531.745 99.4755 532.308 100.09C531.181 101.218 529.746 102.576 528.004 104.164C526.313 105.753 524.442 107.419 522.392 109.161C520.394 110.852 518.293 112.543 516.089 114.234C513.937 115.874 511.836 117.36 509.786 118.693C507.736 119.974 505.814 121.024 504.021 121.844C502.227 122.664 500.741 123.074 499.562 123.074C498.691 123.074 497.718 122.792 496.642 122.228C495.565 121.716 494.54 121.024 493.567 120.153C492.644 119.333 491.85 118.411 491.184 117.386C490.569 116.361 490.261 115.387 490.261 114.465C490.261 113.645 490.569 112.082 491.184 109.776C491.799 107.47 492.542 104.779 493.413 101.705C491.107 104.831 488.852 107.598 486.649 110.006C484.445 112.364 482.421 114.388 480.576 116.079C478.731 117.77 477.117 119.128 475.733 120.153C474.35 121.229 473.325 121.998 472.659 122.459C472.249 122.715 471.762 122.895 471.198 122.997C470.634 123.151 470.122 123.228 469.661 123.228C468.687 123.228 467.611 122.92 466.432 122.305C465.254 121.742 464.178 121.024 463.204 120.153C462.179 119.282 461.333 118.308 460.667 117.232C459.95 116.156 459.591 115.131 459.591 114.157C459.591 113.03 459.975 111.159 460.744 108.546C461.462 105.932 462.461 102.806 463.742 99.168C464.972 95.5296 466.432 91.4556 468.123 86.946C469.815 82.4364 471.634 77.6962 473.581 72.7254C473.684 72.4692 473.76 72.3667 473.812 72.418C473.914 72.418 474.068 72.418 474.273 72.418C475.247 72.5717 476.579 72.9817 478.27 73.6479C479.961 74.2628 481.601 74.9546 483.19 75.7233C484.829 76.492 486.239 77.235 487.417 77.9525C488.596 78.6187 489.185 79.0799 489.185 79.3361C489.032 79.6948 488.622 80.5404 487.955 81.8727C487.34 83.2051 486.597 84.8193 485.726 86.7154C484.906 88.5603 484.01 90.5844 483.036 92.788C482.113 94.9403 481.242 97.0157 480.422 99.0143C479.654 101.013 479.013 102.832 478.501 104.472C477.988 106.061 477.732 107.239 477.732 108.008C477.732 108.213 477.834 108.315 478.039 108.315C478.449 108.315 479.346 107.777 480.73 106.701C482.113 105.574 483.805 103.831 485.803 101.474C487.853 99.1168 490.159 96.0933 492.721 92.4037C495.284 88.6627 497.948 84.1788 500.716 78.9518L502.868 72.8792C503.022 72.4692 503.355 72.2642 503.867 72.2642C504.226 72.2642 504.994 72.623 506.173 73.3404C507.403 74.0066 508.684 74.8009 510.017 75.7233C511.4 76.5945 512.63 77.4913 513.706 78.4137C514.782 79.2848 515.372 79.8998 515.474 80.2585C515.474 80.4122 515.449 80.6941 515.397 81.1041C515.346 81.4628 515.269 81.7702 515.167 82.0265C514.654 83.4101 514.065 85.05 513.399 86.946C512.733 88.7909 512.041 90.7382 511.323 92.788C510.657 94.7866 509.991 96.8108 509.325 98.8606C508.659 100.91 508.044 102.832 507.48 104.626C506.967 106.368 506.532 107.931 506.173 109.315C505.866 110.647 505.712 111.621 505.712 112.236ZM527.312 97.7844C528.49 96.657 529.848 95.3759 531.386 93.941C532.872 92.5062 534.358 90.9432 535.844 89.2521C537.382 87.561 538.791 85.7418 540.072 83.7944C541.404 81.8471 542.455 79.7461 543.224 77.4913C543.429 76.3126 543.736 75.0827 544.146 73.8016C544.607 72.4692 545.094 71.265 545.606 70.1888C546.17 69.1126 546.708 68.2159 547.221 67.4984C547.733 66.781 548.194 66.4223 548.604 66.4223C549.219 66.781 550.142 67.4728 551.372 68.4977C552.601 69.4714 553.831 70.5219 555.061 71.6493C556.291 72.7767 557.367 73.8272 558.29 74.8009C559.263 75.7233 559.75 76.287 559.75 76.492C559.135 78.8493 558.828 80.9759 558.828 82.872C558.879 84.7681 559.033 86.6386 559.289 88.4834C559.596 90.3282 559.904 92.3012 560.211 94.4022C560.57 96.452 560.749 98.835 560.749 101.551C560.749 103.191 560.468 105.087 559.904 107.239C559.391 109.34 558.469 111.236 557.137 112.927C559.75 111.39 562.338 109.673 564.9 107.777C567.463 105.83 569.743 104.011 571.742 102.32C574.099 100.321 576.354 98.3225 578.506 96.3239L581.965 100.09C580.274 101.679 578.429 103.37 576.431 105.164C574.483 106.957 572.433 108.725 570.281 110.468C568.18 112.21 566.028 113.875 563.824 115.464C561.621 117.053 559.443 118.462 557.29 119.692C555.138 120.922 553.063 121.895 551.064 122.613C549.065 123.33 547.195 123.689 545.453 123.689C543.967 123.689 542.327 123.33 540.533 122.613C538.74 121.895 537.048 121.024 535.46 119.999C533.871 118.974 532.488 117.898 531.309 116.771C530.13 115.643 529.439 114.695 529.234 113.927C529.234 113.824 529.336 113.619 529.541 113.312C529.746 112.953 530.002 112.594 530.31 112.236C530.566 111.877 530.848 111.569 531.155 111.313C531.411 111.006 531.616 110.852 531.77 110.852C532.078 110.852 532.693 111.083 533.615 111.544C534.537 112.005 536.075 112.236 538.227 112.236C539.406 112.236 540.405 111.928 541.225 111.313C542.096 110.698 542.814 109.878 543.377 108.853C543.941 107.829 544.351 106.65 544.607 105.317C544.863 103.985 544.991 102.576 544.991 101.09C544.991 98.9374 544.889 96.862 544.684 94.8634C544.479 92.8136 544.248 90.8407 543.992 88.9446C543.121 89.9695 542.122 91.0457 540.994 92.1731C539.867 93.3005 538.714 94.4279 537.535 95.5552C536.408 96.6314 535.255 97.7076 534.076 98.7837C532.949 99.8086 531.924 100.731 531.002 101.551L527.312 97.7844ZM585.962 123.228C585.091 123.228 583.938 122.818 582.503 121.998C581.119 121.229 579.761 120.256 578.429 119.077C577.097 117.949 575.944 116.771 574.97 115.541C573.996 114.311 573.51 113.261 573.51 112.389C573.51 110.852 573.945 108.418 574.816 105.087C575.636 101.756 576.738 97.9638 578.122 93.7104C579.505 89.4058 581.068 84.8193 582.811 79.951C584.604 75.0827 586.398 70.3169 588.191 65.6536H577.353H577.276C577.225 65.6536 577.199 65.6023 577.199 65.4998C577.199 65.1924 577.327 64.7568 577.584 64.1931C577.789 63.5781 578.07 62.9632 578.429 62.3483C578.737 61.6821 579.121 61.0927 579.582 60.5803C579.992 60.0166 580.402 59.6579 580.812 59.5041L590.805 59.0429C592.24 55.5582 593.598 52.3554 594.879 49.4344C596.211 46.4622 597.39 43.9256 598.415 41.8245C598.671 41.2608 598.927 40.6715 599.183 40.0565C599.491 39.3903 599.901 38.7498 600.413 38.1348C600.977 37.4686 601.694 36.8024 602.566 36.1363C603.488 35.4188 604.718 34.7014 606.255 33.984C607.383 33.4203 608.741 32.8053 610.329 32.1391C611.969 31.4729 613.558 30.858 615.095 30.2943C616.684 29.7306 618.119 29.2694 619.4 28.9107C620.681 28.5007 621.603 28.2957 622.167 28.2957C622.679 28.2957 622.936 28.3982 622.936 28.6032V28.7569C622.936 28.8082 622.884 28.9363 622.782 29.1413C622.474 29.6537 621.911 30.7811 621.091 32.5235C620.271 34.2146 619.246 36.3669 618.016 38.9804C616.837 41.5426 615.505 44.4893 614.019 47.8202C612.584 51.0999 611.098 54.5846 609.561 58.2743L628.009 57.5824C628.521 57.5824 628.675 57.8899 628.47 58.5049C628.265 59.1198 627.881 59.8372 627.317 60.6572C626.753 61.4771 626.087 62.3226 625.319 63.1938C624.601 64.065 623.986 64.7312 623.474 65.1924C623.371 65.2949 623.166 65.3974 622.859 65.4998C622.551 65.6023 622.167 65.6536 621.706 65.6536H606.486C604.641 70.1119 602.873 74.6215 601.182 79.1824C599.491 83.7432 597.979 88.0734 596.647 92.1731C595.314 96.2727 594.238 100.039 593.418 103.473C592.65 106.906 592.265 109.725 592.265 111.928C592.265 112.236 592.419 112.389 592.727 112.389C593.29 112.389 594.136 112.082 595.263 111.467C596.391 110.801 597.646 109.955 599.03 108.93C600.465 107.905 601.976 106.778 603.565 105.548C605.154 104.318 606.665 103.114 608.1 101.935C609.535 100.705 610.816 99.6036 611.944 98.63C613.122 97.6051 614.019 96.8364 614.634 96.3239C615.095 96.7851 615.633 97.3745 616.248 98.0919C616.914 98.8093 617.529 99.4755 618.093 100.09C616.966 101.218 615.556 102.601 613.865 104.241C612.174 105.83 610.329 107.47 608.331 109.161C606.383 110.852 604.334 112.543 602.181 114.234C600.08 115.925 598.005 117.437 595.955 118.769C593.956 120.102 592.086 121.178 590.344 121.998C588.601 122.818 587.141 123.228 585.962 123.228Z" fill="white"/>
</svg>
